{
    "asset" : {
        "generator" : "Khronos glTF Blender I/O v1.8.19",
        "version" : "2.0"
    },
    "scene" : 0,
    "scenes" : [
        {
            "name" : "Scene",
            "nodes" : [
                0
            ]
        }
    ],
    "nodes" : [
        {
            "mesh" : 0,
            "name" : "bone",
            "rotation" : [
                0.7121095657348633,
                -0.1910947859287262,
                -0.1289103925228119,
                0.6631478071212769
            ],
            "scale" : [
                0.013599940575659275,
                0.022434672340750694,
                0.015892645344138145
            ],
            "translation" : [
                0.730100691318512,
                0.0032455921173095703,
                -14.653218269348145
            ]
        }
    ],
    "materials" : [
        {
            "doubleSided" : true,
            "name" : "Material.004",
            "pbrMetallicRoughness" : {
                "baseColorFactor" : [
                    0.8000000715255737,
                    0.7628106474876404,
                    0.5733856558799744,
                    1
                ],
                "metallicFactor" : 0,
                "roughnessFactor" : 0.4000000059604645
            }
        }
    ],
    "meshes" : [
        {
            "name" : "bone",
            "primitives" : [
                {
                    "attributes" : {
                        "POSITION" : 0,
                        "NORMAL" : 1
                    },
                    "indices" : 2,
                    "material" : 0
                }
            ]
        }
    ],
    "accessors" : [
        {
            "bufferView" : 0,
            "componentType" : 5126,
            "count" : 1166,
            "max" : [
                291.9847717285156,
                58.990516662597656,
                33.9833869934082
            ],
            "min" : [
                -148.92886352539062,
                -6.0737080574035645,
                -31.82162857055664
            ],
            "type" : "VEC3"
        },
        {
            "bufferView" : 1,
            "componentType" : 5126,
            "count" : 1166,
            "type" : "VEC3"
        },
        {
            "bufferView" : 2,
            "componentType" : 5123,
            "count" : 1662,
            "type" : "SCALAR"
        }
    ],
    "bufferViews" : [
        {
            "buffer" : 0,
            "byteLength" : 13992,
            "byteOffset" : 0
        },
        {
            "buffer" : 0,
            "byteLength" : 13992,
            "byteOffset" : 13992
        },
        {
            "buffer" : 0,
            "byteLength" : 3324,
            "byteOffset" : 27984
        }
    ],
    "buffers" : [
        {
            "byteLength" : 31308,
            "uri" : "data:application/octet-stream;base64,"
        }
    ]
}
